<?xml version="1.0" standalone="no"?><!DOCTYPE svg PUBLIC "-//W3C//DTD SVG 1.1//EN" "http://www.w3.org/Graphics/SVG/1.1/DTD/svg11.dtd"><svg t="1576727844199" class="icon" viewBox="0 0 1024 1024" version="1.1" xmlns="http://www.w3.org/2000/svg" p-id="4443" xmlns:xlink="http://www.w3.org/1999/xlink" width="200" height="200"><defs><style type="text/css"></style></defs><path d="M42.667 512a469.333 469.333 0 1 0 938.666 0 469.333 469.333 0 1 0-938.666 0z" fill="#F9EADB" p-id="4444"></path><path d="M314.197 640l155.136 155.136-186.197 186.197-38.827-116.309L128 826.197z m395.606 0L896 826.197l-116.31 38.827-38.826 116.31-186.197-186.198z" fill="#A0510E" p-id="4445"></path><path d="M554.667 109.952l284.16 164.053a85.333 85.333 0 0 1 42.666 73.899v328.15c0 30.506-16.256 58.666-42.666 73.898l-284.16 164.096a85.376 85.376 0 0 1-85.334 0l-284.16-164.053a85.333 85.333 0 0 1-42.666-73.899v-328.15c0-30.506 16.256-58.666 42.666-73.898l284.16-164.096a85.376 85.376 0 0 1 85.334 0z" fill="#E19449" p-id="4446"></path><path d="M567.339 458.624l-0.64-0.81 133.29-233.515-83.37-52.907L512 426.709 406.187 168.533l-82.304 55.552L457.3 457.813l-0.64 0.811-292.906-87.936-0.768 103.424 277.546 45.355 0.598 2.602-264.235 186.966 81.365 67.242L480.64 570.923 459.563 896h104.832l-21.12-325.035 220.416 203.52 83.37-65.408-264.234-186.965 0.597-2.603 276.181-45.141-3.498-102.4-288.768 86.656z" fill="#ECA157" p-id="4447"></path><path d="M554.667 341.333H640v341.334h-85.333z" fill="#FFFFFF" p-id="4448"></path><path d="M640 341.333v85.334H384v-85.334z m0 256v85.334H384v-85.334z m0-128v85.334H384v-85.334z" fill="#FFFFFF" p-id="4449"></path><path d="M533.333 146.901a42.581 42.581 0 0 0-42.666 0l-284.16 164.096c-13.184 7.638-21.334 21.718-21.334 36.95v328.149c0 15.232 8.15 29.312 21.334 36.95l284.16 164.053a42.581 42.581 0 0 0 42.666 0l284.16-164.054c13.184-7.637 21.334-21.717 21.334-36.949v-328.15c0-15.231-8.15-29.311-21.334-36.949l-284.16-164.096z m21.334-36.949l284.16 164.053a85.333 85.333 0 0 1 42.666 73.899v328.15c0 30.506-16.256 58.666-42.666 73.898l-284.16 164.096a85.376 85.376 0 0 1-85.334 0l-284.16-164.053a85.333 85.333 0 0 1-42.666-73.899v-328.15c0-30.506 16.256-58.666 42.666-73.898l284.16-164.096a85.376 85.376 0 0 1 85.334 0z" fill="#C2681B" p-id="4450"></path></svg>