<?xml version="1.0" standalone="no"?><!DOCTYPE svg PUBLIC "-//W3C//DTD SVG 1.1//EN" "http://www.w3.org/Graphics/SVG/1.1/DTD/svg11.dtd"><svg t="1576727954989" class="icon" viewBox="0 0 1024 1024" version="1.1" xmlns="http://www.w3.org/2000/svg" p-id="13034" xmlns:xlink="http://www.w3.org/1999/xlink" width="200" height="200"><defs><style type="text/css"></style></defs><path d="M287.597875 942.37263L281.600165 938.496061l5.99771 3.876569zM547.547403 248.027983l6.363424 1.170285L547.547403 248.027983z m-236.982688 707.802923L304.274434 952.393194l6.290281 3.437712z m-7.82628-4.388568l-6.143995-3.510855 6.143995 3.583997zM492.982871 242.834844l4.315425 0.146285-4.315425-0.146285zM295.131583 947.053769a180.516442 180.516442 0 0 1-6.143995-3.803426l6.143995 3.803426z m23.332555 12.873134l-6.436567-3.291426 6.436567 3.291426z m-66.706238-43.519969l0 0z m-6.875423-5.631996l-5.412568-4.681139 5.412568 4.681139z m-6.582853-5.851424l-5.412567-4.827425 5.412567 4.827425z m34.523404 27.574837c-1.901713-1.389713-3.876569-2.706284-5.851424-4.242283l5.851424 4.242283z m7.31428 4.973711l-5.851424-3.949712 5.851424 3.949712z m-14.482275-10.093707l-5.705139-4.242283 5.705139 4.242283z m-7.094852-5.412568l-5.558853-4.388568 5.558853 4.388568zM112.494 634.733992c0-1.609142-0.146286-3.145141-0.219429-4.681139l0.219429 4.681139z m264.045525 348.744894l-7.021709-2.194284 7.021709 2.194284zM539.209123 246.711412l5.924568 0.950857c-1.901713-0.365714-3.803426-0.731428-5.851425-0.950857zM411.648072 992.402308l-7.314281-1.535999 7.314281 1.535999z m-8.777137-1.901713l-7.31428-1.755427 7.31428 1.755427z m-76.434231-26.623981l-6.363424-3.14514 6.363424 3.14514z m133.851333 35.547404z m-39.716543-5.266282l-7.314281-1.462856c2.413713 0.585142 4.827425 1.023999 7.314281 1.462856zM519.82628 244.370843l4.388568 0.365714-4.388568-0.365714z m-125.805624 744.008611a362.056884 362.056884 0 0 1-7.314281-1.974856l7.314281 1.974856z m35.47426 7.241138l-7.31428-1.243428 7.31428 1.243428zM501.760007 243.054272l4.973711 0.292571-4.973711-0.292571z m-150.674178 731.501192l-6.729138-2.706284 6.802281 2.706284z m-16.457131-6.948567l-6.582852-2.925712 6.582852 2.925712z m8.191994 3.657141l-6.655995-2.925713c2.194284 0.950856 4.534854 1.901713 6.582852 2.925713zM510.537144 243.493129l5.046853 0.365714L510.537144 243.639415zM359.424109 977.700604c-2.194284-0.731428-4.534854-1.682285-6.802281-2.559998l6.802281 2.559998z m25.81941 8.33828a318.975772 318.975772 0 0 1-7.094852-2.194284c2.34057 0.877714 4.68114 1.462856 7.094852 2.194284z m-17.261702-5.339424l-6.948566-2.413713 6.948566 2.413713zM555.81254 249.563982l6.582853 1.31657-6.582853-1.31657zM139.264266 763.099615l-2.34057-6.143996 2.34057 6.143996zM563.785106 250.953695zM531.017129 245.541127l4.68114 0.658286L531.017129 245.541127zM142.628835 771.437895l-2.486855-6.070853 2.486855 6.070853z m-19.967985-60.708528a277.576945 277.576945 0 0 1-1.462857-6.436567c0.365714 2.194284 0.950856 4.242283 1.462857 6.363424zM599.039938 260.754831c2.413713 0.804571 4.900568 1.682285 7.31428 2.633141-2.413713-0.950856-4.900568-1.82857-7.31428-2.633141zM158.427681 803.9133l-3.071998-5.851424 3.071998 5.851424zM154.331684 795.940734l-2.925712-5.851424 2.925712 5.851424zM118.857424 692.516808L117.687139 686.153384l1.170285 6.363424zM583.606806 256.073691l7.31428 2.121142-7.31428-2.194284zM127.415132 728.503068l-1.755427-6.363424 1.755427 6.363424z m2.706284 8.777137c-0.731428-2.047999-1.31657-4.16914-1.974856-6.363424l1.974856 6.436567z m-5.119997-17.554273L123.319135 713.216222l1.682284 6.363424zM591.506229 258.341118l7.31428 2.34057-7.31428-2.34057zM136.045983 754.61505l-2.194284-6.217139 2.194284 6.217139z m-3.071998-8.630851z m-20.041129-100.937071c0-1.82857-0.219428-3.65714-0.292571-5.631996l0.292571 5.705139zM575.63424 254.025693l7.314281 1.974856a168.082166 168.082166 0 0 1-7.314281-1.974856zM203.922506 869.961253l-4.242283-5.193139 4.242283 5.193139z m-5.631996-6.802281l-4.315426-5.266282 4.315426 5.266282zM114.688284 664.503114l-0.731428-6.290281 0.731428 6.290281z m97.865073 215.186132z m12.799991 13.165705l-5.119997-5.119997 5.119997 5.119997z m6.363424 6.143995l-5.119997-4.97371 5.119997 4.97371zM113.737427 654.921406L113.225428 648.850554l0.511999 6.070852z m78.99423 201.289l-4.095997-5.339425c1.389713 1.682285 2.706284 3.583997 4.095997 5.339425z m26.550838 30.500549l-5.119997-5.412567 5.119997 5.412567zM117.248282 683.300815z m45.567967 128.438765l-3.218283-5.778281 3.218283 5.778281zM604.379363 261.77883L555.885683 516.315791l-44.617111-91.867363 45.348539 93.403362 101.522213 14.994275c34.084547 5.046854 42.203398 28.379408 17.042274 53.394248l-73.435376 72.703948 17.261702 102.692498c5.851424 34.523404-13.531419 49.737107-44.617111 32.987405L483.620592 746.130484l25.81941 13.750848-45.348539 238.079829c6.436567 0.365714 12.946276 0.512 19.529129 0.512 205.75071 0 372.516305-169.471879 372.516305-378.514015 0-166.034167-105.252496-307.199781-251.757534-358.180316zM172.105386 827.099569L168.594531 821.467573l3.510855 5.631996z m-4.754283-7.606851C166.253961 817.591005 165.303105 815.616149 163.986534 813.787579l3.364569 5.705139z m14.701704 22.381698l-3.803426-5.485711 3.803426 5.485711z m5.266282 7.241137l-3.949711-5.412567 3.949711 5.412567z m251.172392 147.748466l-7.31428-1.097142 7.31428 1.097142zM177.005954 834.486993l-3.657141-5.485711 3.657141 5.558853zM115.858569 674.011679l-0.877714-6.363424c0.219428 2.194284 0.585142 4.242283 0.877714 6.363424z" fill="#DD9C4E" p-id="13035"></path><path d="M756.808968 278.309104L862.866035 60.928688A26.477695 26.477695 0 0 0 841.654622 18.359575H659.60218L624.347348 203.410872c44.397683 14.189704 94.13479 37.375973 132.46162 74.898232" fill="#DD9C4E" p-id="13036"></path><path d="M463.140606 181.175459L392.0458 38.839561A26.258267 26.258267 0 0 0 366.811532 18.359575H136.411697a26.550838 26.550838 0 0 0-21.284556 42.569113l106.057067 217.380416c89.892507-87.771366 241.956399-97.133645 241.956398-97.133645z m47.103967 0h2.121141l1.170285 0.146286c35.98626 3.510855 71.46052 10.898278 105.910781 21.942841L654.774755 18.359575h-48.347394a26.33141 26.33141 0 0 0-25.380553 20.479986l-70.948521 142.335898h0.146286z m-21.796556 560.054457l-90.770221 48.566823c-30.50055 16.237703-50.614821 2.194284-44.617111-32.987405l17.334845-102.765641-73.508519-72.703948c-24.649125-24.429697-17.700559-48.274251 17.042273-53.394248l101.522214-14.921132 45.421681-93.476505c15.213703-31.378263 39.716543-31.963406 55.222818 0l44.617111 91.867363 48.566823-254.536961a330.532335 330.532335 0 0 0-5.19314-1.755427l-2.633141-0.804571-5.046853-1.609142-2.85257-0.877713a144.383897 144.383897 0 0 0-4.97371-1.462856l-2.925712-0.731428-5.119997-1.389714a496.859074 496.859074 0 0 0-11.849134-2.852569l-3.65714-0.731428-4.388569-0.950857-4.022854-0.731428-4.242283-0.804571-4.388568-0.731428-4.022854-0.658285-5.339425-0.731428-3.071998-0.438857a384.950582 384.950582 0 0 0-8.33828-0.950856l-2.925712-0.292571L518.436567 237.78799l-3.291426-0.292571a298.715215 298.715215 0 0 0-5.558854-0.365714L506.148576 237.056562a408.795137 408.795137 0 0 0-5.99771-0.219428L497.371439 236.763991l-8.777137-0.146286C282.770449 236.617705 115.931711 406.089584 115.931711 615.131721l0.073143 9.65485 0.146286 3.14514 0.219428 6.363425c0 1.31657 0.146286 2.559998 0.219429 3.803425l0.365714 5.705139 0.365714 4.022854 0.438857 5.412568 0.438856 4.16914 0.585143 5.119996a212.114134 212.114134 0 0 0 0.585142 4.315426l0.731428 5.046853c0.146286 1.462856 0.438857 2.852569 0.658286 4.242283l0.731428 4.973711 0.804571 4.242282a231.058121 231.058121 0 0 0 1.82857 9.142851l1.023999 4.754282 1.023999 4.242283 1.097142 4.754282 1.097142 4.242283 1.243428 4.681139 1.170285 4.242283 1.389713 4.607997 1.316571 4.242283 1.389713 4.461711c0.438857 1.535999 0.950856 2.925712 1.462856 4.16914l1.462856 4.461711 1.462856 4.169139a379.757443 379.757443 0 0 0 3.218284 8.484566l1.82857 4.242283 1.682284 4.095997 1.82857 4.242282 1.828571 4.022855 1.901712 4.242282 1.901713 4.022855 1.974856 4.169139 1.974856 3.876569 2.194284 4.095997 1.974856 3.876569 2.194284 4.022854 2.194284 3.803426 2.267427 3.949711 2.194284 3.803426c0.804571 1.243428 1.682285 2.559998 2.413713 3.876569l2.340569 3.730283 2.486856 3.803426 2.413712 3.65714 2.486856 3.730283a228.205551 228.205551 0 0 0 5.119996 7.314281c0.950856 1.170285 1.755427 2.413713 2.633141 3.583997l2.706284 3.510855 2.706284 3.583997 2.706283 3.437712 2.85257 3.510855 2.852569 3.364569 2.85257 3.510854 2.706283 3.071998c2.559998 2.925712 5.119996 5.851424 7.82628 8.703994l1.170285 1.31657 3.437712 3.657141 2.706284 2.706283 3.437712 3.437712 2.779426 2.85257 3.510855 3.291426 2.925712 2.852569 3.583998 3.218284 2.925712 2.706283 3.65714 3.145141 3.145141 2.633141 3.65714 2.998855 3.145141 2.633141 3.730283 2.925712 3.14514 2.486855 3.803426 2.85257 3.291426 2.413712 3.876569 2.85257 3.364569 2.34057 3.949711 2.706283 3.364569 2.194285 4.022855 2.63314 3.437712 2.194285 4.095997 2.486855 3.510854 2.194284 4.095997 2.34057 3.657141 2.047998 4.169139 2.267427c1.170285 0.731428 2.413713 1.31657 3.657141 1.974856l4.16914 2.194284 3.65714 1.82857 4.315425 2.194285 3.657141 1.682284c1.462856 0.731428 2.925712 1.462856 4.388568 2.047999l3.803426 1.682284 4.388568 1.901713 3.803426 1.609142 4.534854 1.755427a321.170056 321.170056 0 0 0 8.411422 3.145141l3.803426 1.462856 4.607997 1.609141 3.876569 1.243428 4.681139 1.462856 3.949712 1.243428 4.754282 1.462856 3.949711 1.023999 4.754283 1.316571 4.022854 0.950856 4.827425 1.170285 3.949712 0.877714 4.97371 1.097142 3.949712 0.731428 5.046853 1.023999 3.876569 0.658285 5.119996 0.804571 3.876569 0.585143 5.339425 0.731428 3.364569 0.365714c6.802281 0.804571 13.604562 1.462856 20.479985 1.901713l3.65714 0.219428 45.348539-238.07983-25.746267-13.897133z" fill="#FDBE64" p-id="13037"></path><path d="M459.044609 407.845012l-45.421682 93.476504-101.522213 14.994275c-34.742832 5.119996-41.691399 28.891408-17.042273 53.394248l73.508519 72.703948-17.334845 102.692498c-5.99771 35.181689 14.116561 49.225108 44.617111 32.914262l90.770221-48.420537 90.770221 48.49368c31.085692 16.603417 50.468535 1.462856 44.617111-32.987405l-17.261702-102.692498 73.435376-72.777091c25.161125-24.868554 17.042274-48.274251-17.042274-53.321105l-101.522213-14.994275-45.348539-93.476504c-15.579417-31.963406-40.009114-31.378263-55.222818 0" fill="#FFFFFF" p-id="13038"></path></svg>