<?xml version="1.0" standalone="no"?><!DOCTYPE svg PUBLIC "-//W3C//DTD SVG 1.1//EN" "http://www.w3.org/Graphics/SVG/1.1/DTD/svg11.dtd"><svg t="1576727864161" class="icon" viewBox="0 0 1024 1024" version="1.1" xmlns="http://www.w3.org/2000/svg" p-id="6841" xmlns:xlink="http://www.w3.org/1999/xlink" width="200" height="200"><defs><style type="text/css"></style></defs><path d="M493.27 896.64l-89.217 43.605a42.667 42.667 0 0 1-56.448-18.346l-46.549-87.723a42.71 42.71 0 0 0-30.336-22.016l-97.792-17.152a42.667 42.667 0 0 1-34.859-48l13.91-98.304a42.667 42.667 0 0 0-11.563-35.627l-69.035-71.381a42.667 42.667 0 0 1 0-59.35l69.035-71.38a42.624 42.624 0 0 0 11.563-35.627l-13.91-98.347a42.667 42.667 0 0 1 34.902-48l97.792-17.152c12.97-2.261 24.149-10.41 30.336-22.016l46.549-87.723a42.624 42.624 0 0 1 56.405-18.346l89.216 43.605a42.766 42.766 0 0 0 37.462 0l89.216-43.605a42.667 42.667 0 0 1 56.448 18.346l46.549 87.723c6.187 11.605 17.365 19.755 30.336 22.016l97.792 17.152a42.667 42.667 0 0 1 34.859 48l-13.91 98.304a42.667 42.667 0 0 0 11.563 35.627l69.035 71.381a42.667 42.667 0 0 1 0 59.35l-69.035 71.38a42.624 42.624 0 0 0-11.563 35.627l13.91 98.304a42.667 42.667 0 0 1-34.859 48l-97.792 17.152a42.71 42.71 0 0 0-30.336 22.016l-46.55 87.723a42.667 42.667 0 0 1-56.447 18.347l-89.216-43.606a42.624 42.624 0 0 0-37.462 0.043z" fill="#E19449" p-id="6842"></path><path d="M512 832a320 320 0 1 1 0-640 320 320 0 0 1 0 640z m0-42.667a277.333 277.333 0 1 0 0-554.666 277.333 277.333 0 0 0 0 554.666z" fill="#D4863D" p-id="6843"></path><path d="M360.021 386.432l59.947 76.288a8.533 8.533 0 0 0 13.44 0l71.893-91.52a8.533 8.533 0 0 1 13.44 0l71.808 91.52a8.533 8.533 0 0 0 13.44 0l60.075-76.33a8.533 8.533 0 0 1 11.99-1.409 8.49 8.49 0 0 1 3.2 7.68l-24.96 214.358H369.791l-24.96-214.315a8.533 8.533 0 0 1 15.19-6.272z" fill="#FFDCA6" p-id="6844"></path><path d="M383.36 634.197h257.28c7.51 0 13.568 6.059 13.568 13.568v15.531a13.568 13.568 0 0 1-13.568 13.568H383.36a13.568 13.568 0 0 1-13.568-13.568v-15.53c0-7.51 6.059-13.569 13.568-13.569z" fill="#F2C57E" p-id="6845"></path></svg>