<?xml version="1.0" standalone="no"?><!DOCTYPE svg PUBLIC "-//W3C//DTD SVG 1.1//EN" "http://www.w3.org/Graphics/SVG/1.1/DTD/svg11.dtd"><svg t="1576727904402" class="icon" viewBox="0 0 1024 1024" version="1.1" xmlns="http://www.w3.org/2000/svg" p-id="9915" xmlns:xlink="http://www.w3.org/1999/xlink" width="200" height="200"><defs><style type="text/css"></style></defs><path d="M249.6 0H768v236.8H249.6z" fill="#8F1D3D" p-id="9916"></path><path d="M249.6 76.8H768v83.2H249.6z" fill="#AFAEAE" p-id="9917"></path><path d="M249.6 0c-38.4 51.2-83.2 108.8-128 166.4l217.6 332.8 179.2-83.2L249.6 0z" fill="#FC4747" p-id="9918"></path><path d="M204.8 51.2l-38.4 57.6 236.8 364.8 57.6-25.6-256-396.8z" fill="#FFFFFF" p-id="9919"></path><path d="M768 0l6.4 6.4c32 44.8 76.8 108.8 121.6 160l-217.6 332.8-179.2-83.2L768 0z" fill="#FC4747" p-id="9920"></path><path d="M819.2 51.2c12.8 19.2 25.6 38.4 44.8 57.6L620.8 467.2l-57.6-25.6 256-390.4z" fill="#FFFFFF" p-id="9921"></path><path d="M819.2 51.2c12.8 19.2 25.6 38.4 44.8 57.6L620.8 467.2l-57.6-25.6 256-390.4z" fill="#FFFFFF" p-id="9922"></path><path d="M166.4 678.4C166.4 870.4 320 1024 512 1024s352-153.6 352-345.6S710.4 326.4 512 326.4s-345.6 153.6-345.6 352z" fill="#FCBF44" p-id="9923"></path><path d="M236.8 678.4c0 96 51.2 192 140.8 236.8 83.2 51.2 192 51.2 275.2 0 83.2-51.2 140.8-140.8 140.8-236.8 0-153.6-121.6-275.2-275.2-275.2s-281.6 121.6-281.6 275.2z" fill="#F9D710" p-id="9924"></path><path d="M512 409.6c153.6 0 275.2 121.6 275.2 268.8v-6.4c0-153.6-121.6-275.2-275.2-275.2s-275.2 121.6-275.2 275.2v6.4c0-147.2 121.6-268.8 275.2-268.8z" fill="#BF7D68" p-id="9925"></path><path d="M441.6 601.6H499.2v243.2H576l12.8-12.8L576 601.6v-57.6h-44.8l-38.4-6.4c-19.2-6.4-25.6-6.4-38.4-12.8l-6.4 12.8-6.4 64z" fill="#BF7D68" p-id="9926"></path><path d="M448 582.4H505.6v243.2h76.8V576v-57.6H448v64z" fill="#FFFFFF" p-id="9927"></path></svg>