<?xml version="1.0" standalone="no"?><!DOCTYPE svg PUBLIC "-//W3C//DTD SVG 1.1//EN" "http://www.w3.org/Graphics/SVG/1.1/DTD/svg11.dtd"><svg t="1576727809737" class="icon" viewBox="0 0 1024 1024" version="1.1" xmlns="http://www.w3.org/2000/svg" p-id="2065" xmlns:xlink="http://www.w3.org/1999/xlink" width="200" height="200"><defs><style type="text/css"></style></defs><path d="M648.6940625 818.6890625c-3.489375-12.525-14.8340625-21.193125-27.79875-21.193125h-61.2628125v-104.595c-15.5203125 2.6221875-31.4390625 4.0528125-47.6465625 4.05281251-16.2215625 0-32.14124999-1.4296875-47.675625-4.05281251v104.595h-61.205625c-12.965625 0-24.3384375 8.668125-27.800625 21.193125l-21.7434375 78.4434375c-2.3896875 8.7215625-0.6328125 18.076875 4.82062499 25.275 5.47874999 7.2234375 13.96875001 11.4684375 22.99218751 11.4684375h261.4790625c15.931875 0 28.843125-12.9796875 28.843125-28.9828125 0-3.9815625-0.78374999-7.7859375-2.225625-11.2340625l-20.77875001-74.9690625zM805.27625001 197.193125c-7.2459375-1.996875-15.5671875-3.1453125-24.15562501-3.1453125-0.001875 0-0.0046875 0-0.0065625 0-3.7209375 0-7.430625 0.2465625-11.14031251 0.6590625v-77.3015625c0-15.0534375-12.140625-27.2784375-27.13874999-27.2784375h-461.65875001c-15.0121875 0-27.181875 12.2259375-27.18187499 27.2784375v77.3015625c-3.70875001-0.4134375-7.4165625-0.6590625-11.12625-0.6590625-0.001875 0-0.00374999 0-0.005625 0-8.5884375 0-16.90875001 1.1484375-24.8165625 3.2990625-62.6859375 16.809375-96.4340625 96.9421875-74.7328125 178.858125 19.0096875 71.6015625 74.086875 120.8859375 129.9496875 120.8859375 2.829375 0 5.6596875-0.2878125 8.5021875-0.5634375 13.7390625 29.353125 31.5159375 54.4434375 52.9771875 75.841875-45.9853125-61.80374999-45.55875001-60.99375001-45.1340625-60.23812499 17.16375001 31.485 39.2934375 58.0471875 65.65125 79.64062499-54.4434375-60.7396875-54.0178125-60.0684375-53.5640625-59.4065625 3.984375 6.0440625 8.1309375 11.9634375 12.5128125 17.67843751 0.12374999 0.1509375 0.2465625 0.301875 0.3853125 0.43874999 9.2034375 11.93624999 19.366875 22.9790625 30.27281251 33.088125 0.219375 0.178125 0.3853125 0.3984375 0.56343749 0.5465625 5.398125 4.9715625 11.0015625 9.6703125 16.715625 14.146875 0.2878125 0.22125001 0.5484375 0.4003125 0.81093751 0.60468751 23.720625 18.2953125 50.4215625 32.35875001 79.12874999 41.15156249 0.0965625 0.039375 0.178125 0.0553125 0.27375001 0.095625 7.21124999 2.1703125 14.491875 4.0528125 21.90843749 5.5771875h0.04125c13.194375 2.83125001 28.4315625 4.5571875 44.03625 4.7671875-20.5078125-1.155-20.3146875-1.155-20.150625-1.1409375 7.8421875 0.7959375 15.7959375 1.235625 23.7890625 1.235625 8.0071875 0 15.90375001-0.4415625 23.72062501-1.235625 0.1903125-0.015 0.384375-0.015 0.60468749-0.0553125 7.8553125-0.78374999 15.601875-2.00625001 23.25281251-3.571875h0.13687499c22.6565625-4.760625 42.705-11.89874999 61.396875-21.33375-39.3328125 15.6890625-39.0871875 15.6384375-38.8321875 15.6234375 28.325625-8.75625001 54.9965625-22.8046875 78.7321875-41.1009375 0.2615625-0.193125 0.52124999-0.4115625 0.78375001-0.60468749 5.7815625-4.4653125 11.3596875-9.2034375 16.74187499-14.14687501 0.178125-0.1640625 0.37125001-0.343125 0.549375-0.5353125 10.9471875-10.095 21.0984375-21.193125 30.34125001-33.1265625 0.1378125-0.1378125 0.2334375-0.2615625 0.32906249-0.4115625 4.3959375-5.7140625 8.5715625-11.634375 12.553125-17.690625 0.4265625-0.645 0.86624999-1.3059375 1.29281251-1.9659375 19.291875-29.589375 33.541875-64.3490625 40.56093749-101.66062499-29.341875 82.6246875-28.9303125 81.855-28.5178125 81.05906249 14.17125001-26.1028125 24.3928125-56.51624999 28.90125-88.76156249-19.4784375 75.76875001-16.6209375 76.0415625-13.8196875 76.04156249 55.8759375 0 110.9690625-49.2703125 129.950625-120.8728125 21.733125-81.915-12.043125-162.0478125-75.39-179.01zM187.9559375 364.2828125c-14.87625001-56.150625 4.6696875-112.12125001 42.64875-122.2734375 3.6571875-1.0115625 7.8534375-1.5928125 12.18656251-1.5928125 0.0384375 0 0.075 0 0.11343749 0 3.675 0 7.3846875 0.4940625 11.105625 1.2628125v128.7c0 7.843125 0.37125001 15.6159375 0.975 23.3090625 0.0684375 1.0453125 0.12374999 2.0746875 0.2053125 3.118125 0.61875001 7.29375001 1.5534375 14.505 2.6934375 21.66 0.2053125 1.2778125 0.425625 2.5134375 0.616875 3.77718751 1.250625 7.100625 2.6934375 14.0784375 4.423125 20.94656249 0.2334375 1.070625 0.5353125 2.1290625 0.81 3.19875 0.315 1.2065625 0.616875 2.3634375 0.93375 3.5428125-32.7046875-5.356875-64.6940625-40.3396875-76.7128125-85.6528125zM653.0196875 311.470625l-76.644375 57.7565625 27.8690625 91.366875c0.241875 0.763125 0.380625 1.640625 0.380625 2.5509375 0 2.878125-1.393125 5.4309375-3.541875 7.0209375-1.54875001 1.115625-3.346875 1.693125-5.1196875 1.693125-1.7184375 0-3.46125001-0.508125-4.903125-1.5384375l-79.0734375-54.6253125-79.06125 54.6253125c-3.0084375 2.1159375-7.0734375 2.0334375-10.05375-0.1378125-2.1478125-1.606875-3.523125-4.14375001-3.52312501-7.0021875 0-0.9215625 0.1434375-1.8121875 0.40875001-2.6465625l27.796875-91.318125-76.6303125-57.7434375c-2.953125-2.2265625-4.2028125-6.1265625-3.04875-9.6571875 1.1465625-3.4734375 4.333125-5.9484375 8.1065625-6.016875l96.2128125-1.9359375 31.633125-90.2971875c1.1953125-3.4734375 4.4784375-5.795625 8.1590625-5.795625s6.950625 2.32125001 8.158125 5.795625l31.6190625 90.2971875 96.2165625 1.9359375c3.721875 0.0834375 6.97874999 2.5134375 8.1028125 6.0159375 1.1109375 3.5296875-0.0834375 7.430625-3.06468751 9.6571875zM836.058125 364.2828125c-12.0309375 45.313125-43.98 80.296875-76.725 85.6528125 0.3290625-1.1671875 0.6309375-2.3353125 0.93375-3.5428125 0.2878125-1.070625 0.5765625-2.101875 0.838125-3.19875 4.6809375-17.985 7.6471875-38.7665625 8.22375001-60.1490625-3.6103125 37.936875-3.418125 36.70125001-3.225 35.4234375 2.29875001-13.44375001 3.6890625-29.0184375 3.83624999-44.889375-1.033125 22.185-0.9778125 21.16875001-0.909375 20.150625 0.590625-7.719375 0.9628125-15.52124999 0.9628125-23.364375v-128.686875c3.706875-0.7696875 7.4428125-1.2628125 11.1384375-1.2628125 4.1465625 0 8.281875 0.52124999 12.25125 1.5928125 38.0184375 10.15124999 57.55125001 66.1228125 42.675 122.2734375z" fill="#F49C2E" p-id="2066"></path></svg>